<svg height="209" viewBox="0 0 209 209" width="209" xmlns="http://www.w3.org/2000/svg" xmlns:xlink="http://www.w3.org/1999/xlink"><clipPath id="a"><path d="m121.27 4.183a14.259 14.259 0 0 0 -10.098-4.183h-67.272a14.283 14.283 0 0 0 -14.28 14.283v1.151h-3.141a2.358 2.358 0 0 0 0 4.716h3.141v14.15h-3.141a2.358 2.358 0 0 0 0 4.716h3.141v14.149h-3.141a2.356 2.356 0 1 0 0 4.713h3.141v14.15h-3.141a2.357 2.357 0 0 0 0 4.715h3.141v14.151h-3.141a2.357 2.357 0 0 0 0 4.715h3.141v1.981a14.283 14.283 0 0 0 14.28 14.281h67.271a14.28 14.28 0 0 0 14.28-14.281v-83.307a14.253 14.253 0 0 0 -4.181-10.1zm-66.8 101.4h-10.57a8 8 0 0 1 -8-8v-1.974h4.988a4.71 4.71 0 1 0 -.062-4.715h-4.926v-14.151h4.98a4.711 4.711 0 1 0 -.046-4.715h-4.934v-14.151h4.972a4.713 4.713 0 1 0 -.03-4.713h-4.942v-14.149h4.964a4.713 4.713 0 1 0 -.016-4.716h-4.948v-14.149h4.957a4.713 4.713 0 1 0 0-4.716h-4.957v-1.151a7.993 7.993 0 0 1 8-8h10.572v99.3zm64.7-8a8 8 0 0 1 -8 8h-54.34v-99.298h54.342a7.994 7.994 0 0 1 8 8v83.305z"/></clipPath><linearGradient id="b" gradientUnits="objectBoundingBox" x1=".375" x2=".87" y1="-.587" y2="1.202"><stop offset="0" stop-color="#0045ff"/><stop offset="1" stop-color="#00f5ff"/></linearGradient><clipPath id="c"><path d="m66.453 24.713h41.718v2.356h-41.718z"/></clipPath><clipPath id="d"><path d="m66.453 39.835h41.718v2.356h-41.718z"/></clipPath><clipPath id="e"><path d="m66.453 54.957h41.718v2.356h-41.718z"/></clipPath><clipPath id="f"><path d="m66.453 70.079h41.718v2.356h-41.718z"/></clipPath><clipPath id="g"><path d="m66.453 85.201h41.718v2.355h-41.718z"/></clipPath><path d="m104.5 0a104.5 104.5 0 1 1 -104.5 104.5 104.5 104.5 0 0 1 104.5-104.5z" fill="#fff"/><g transform="translate(29.878 48)"><g clip-path="url(#a)"><path d="m0 0 1920-143.959v985.959l-1920 156.2z" fill="url(#b)" transform="translate(-420.878 -380)"/></g><g clip-path="url(#c)"><path d="m0 0 1920-143.959v985.959l-1920 156.2z" fill="url(#b)" transform="translate(-420.878 -380)"/></g><g clip-path="url(#d)"><path d="m0 0 1920-143.959v985.959l-1920 156.2z" fill="url(#b)" transform="translate(-420.878 -380)"/></g><g clip-path="url(#e)"><path d="m0 0 1920-143.959v985.959l-1920 156.2z" fill="url(#b)" transform="translate(-420.878 -380)"/></g><g clip-path="url(#f)"><path d="m0 0 1920-143.959v985.959l-1920 156.2z" fill="url(#b)" transform="translate(-420.878 -380)"/></g><g clip-path="url(#g)"><path d="m0 0 1920-143.959v985.959l-1920 156.2z" fill="url(#b)" transform="translate(-420.878 -380)"/></g></g></svg>