<svg height="90.739" viewBox="0 0 172.177 90.739" width="172.177" xmlns="http://www.w3.org/2000/svg"><g fill="#fff"><text font-family="Futura-MediumItalic, Futura" font-size="64" font-style="italic" font-weight="500" transform="translate(0 66)"><tspan x="0" y="0">aika</tspan></text><path d="m33.841 92.5-3.4-7.468-5.32-1.032c0-1.141-.067-2.3.012-3.453.254-3.695-.018-7.445 1.105-11.052a56.262 56.262 0 0 0 2.316-17.115 35.841 35.841 0 0 0 -1.654-11.215 10.474 10.474 0 0 1 -.116-4.26c.112-1.049.368-1.985-.587-2.413l1.537-3.707-.264-.16-1.67 1.316a3.515 3.515 0 0 1 -.154-.484c2.049-1.6 1.994-3.809 1.939-6.119-.066-2.815.029-5.6-1.379-8.2a2.54 2.54 0 0 1 .229-2.018c2.138-3.932 5.362-6.335 9.938-6.36 3.888-.021 7.777 3.35 7.586 7.432a56.392 56.392 0 0 0 -.032 6.1 6.149 6.149 0 0 0 .946 2.789c1.662 2.616 3.481 5.131 5.191 7.716a20.637 20.637 0 0 1 3.136 7.788c1.1 5.97.67 12 1.046 18a3.54 3.54 0 0 1 -1.256 3.462 1.947 1.947 0 0 0 -.633 1.285c-.153 1.731-.206 3.472-.29 5.21a2.829 2.829 0 0 1 0 .812c-1.431 3.716.648 7.123.92 10.685a7.1 7.1 0 0 0 .257 1.6c.375 1.178.083 1.68-1.232 1.649-.486-.011-.957.608-1.483.736-.964.236-1.964.32-2.709.431l-1.486 8.045z" transform="translate(117.906 -1.756)"/></g></svg>