<?xml version="1.0" encoding="utf-8"?>
<!-- Generator: Adobe Illustrator 25.0.0, SVG Export Plug-In . SVG Version: 6.00 Build 0)  -->
<svg version="1.1" id="レイヤー_1" xmlns="http://www.w3.org/2000/svg" xmlns:xlink="http://www.w3.org/1999/xlink" x="0px"
	 y="0px" viewBox="0 0 209 209" style="enable-background:new 0 0 209 209;" xml:space="preserve">
<style type="text/css">
	.st0{fill:url(#SVGID_1_);}
	.st1{clip-path:url(#SVGID_3_);fill:#FFFFFF;}
	.st2{clip-path:url(#SVGID_5_);fill:#FFFFFF;}
	.st3{clip-path:url(#SVGID_7_);fill:#FFFFFF;}
	.st4{clip-path:url(#SVGID_9_);fill:#FFFFFF;}
</style>
<linearGradient id="SVGID_1_" gradientUnits="userSpaceOnUse" x1="26.6063" y1="34.8363" x2="182.3937" y2="174.1637" gradientTransform="matrix(0.9472 0.3205 -0.3205 0.9472 39.0063 -27.9805)">
	<stop  offset="0" style="stop-color:#0045FF"/>
	<stop  offset="1" style="stop-color:#00F5FF"/>
</linearGradient>
<path class="st0" d="M138,5.5C192.7,24,222,83.3,203.5,138S125.7,222,71,203.5S-13,125.7,5.5,71S83.3-13,138,5.5z"/>
<g>
	<defs>
		<path id="SVGID_2_" d="M95.1,64h21.6c4,0,7.3,3.3,7.3,7.1v15.8h-4.3v-8.2c0-1-0.9-1.9-1.8-1.9l0,0c-1.1,0-2,0.9-2,1.9v8.2H96.2
			v-8.2c0-1-0.9-1.9-2-1.9l0,0c-1,0-1.9,0.9-1.9,1.9v8.2h-4.7V71.2C87.7,67.3,91,64,95.1,64L95.1,64L95.1,64z M105.9,42.8
			c5.1,0,9.3,4.1,9.3,9.3c0,5.1-4.1,9.2-9.3,9.2c-5.1,0-9.2-4.1-9.2-9.2C96.7,47,100.8,42.8,105.9,42.8z"/>
	</defs>
	<use xlink:href="#SVGID_2_"  style="overflow:visible;fill:#FFFFFF;"/>
	<clipPath id="SVGID_3_">
		<use xlink:href="#SVGID_2_"  style="overflow:visible;"/>
	</clipPath>
	<rect x="28.7" y="26" class="st1" width="157.2" height="169.5"/>
</g>
<g>
	<defs>
		<path id="SVGID_4_" d="M52,100.3h4.3c3.6,0,6.3,2.9,6.3,6.3v12.8l-6.3,20.5H52c-3.4,0-6.3-2.8-6.3-6.3v-27
			C45.7,103.2,48.6,100.3,52,100.3L52,100.3L52,100.3z M54.1,80c4.8,0,8.7,4,8.7,8.7c0,4.8-3.8,8.7-8.7,8.7c-4.8,0-8.7-3.8-8.7-8.7
			C45.4,83.9,49.3,80,54.1,80z"/>
	</defs>
	<use xlink:href="#SVGID_4_"  style="overflow:visible;fill:#FFFFFF;"/>
	<clipPath id="SVGID_5_">
		<use xlink:href="#SVGID_4_"  style="overflow:visible;"/>
	</clipPath>
	<rect x="28.7" y="26" class="st2" width="157.2" height="169.5"/>
</g>
<g>
	<defs>
		<path id="SVGID_6_" d="M154.3,100.3h4.4c3.4,0,6.3,2.9,6.3,6.3v27c0,3.4-2.8,6.3-6.3,6.3h-3.3l-7.4-24v-9.2
			C148,103.2,150.9,100.3,154.3,100.3L154.3,100.3L154.3,100.3z M156.5,80c4.7,0,8.7,4,8.7,8.7c0,4.8-4,8.7-8.7,8.7
			c-4.8,0-8.7-3.8-8.7-8.7C147.9,83.9,151.7,80,156.5,80z"/>
	</defs>
	<use xlink:href="#SVGID_6_"  style="overflow:visible;fill:#FFFFFF;"/>
	<clipPath id="SVGID_7_">
		<use xlink:href="#SVGID_6_"  style="overflow:visible;"/>
	</clipPath>
	<rect x="28.7" y="26" class="st3" width="157.2" height="169.5"/>
</g>
<g>
	<defs>
		<path id="SVGID_8_" d="M152.8,143.9l-13.3-45.4c-1.5-4.7-4.2-8.8-9.3-8.8h-48c-5.1,0-7.9,4-9.3,8.8l-13.5,45.4
			c-1.3,4.7,4.2,8.8,9.3,8.8h13.9v-14.5c0-5.1,4.3-9.5,9.6-9.5h28c5.2,0,9.4,4.3,9.4,9.5v14.5h13.9
			C148.6,152.7,154.1,148.7,152.8,143.9L152.8,143.9z M106.1,125.2c-6.7,0-12.1-5.6-12.1-12.4c0-6.8,5.4-12.4,12.1-12.4
			c6.6,0,12,5.6,12,12.4C118.1,119.6,112.7,125.2,106.1,125.2z"/>
	</defs>
	<use xlink:href="#SVGID_8_"  style="overflow:visible;fill:#FFFFFF;"/>
	<clipPath id="SVGID_9_">
		<use xlink:href="#SVGID_8_"  style="overflow:visible;"/>
	</clipPath>
	<rect x="28.7" y="26" class="st4" width="157.2" height="169.5"/>
</g>
</svg>
