<?xml version="1.0" encoding="utf-8"?>
<!-- Generator: Adobe Illustrator 25.0.0, SVG Export Plug-In . SVG Version: 6.00 Build 0)  -->
<svg version="1.1" id="Capa_1" xmlns="http://www.w3.org/2000/svg" xmlns:xlink="http://www.w3.org/1999/xlink" x="0px" y="0px"
	 viewBox="0 0 209.1 209.1" style="enable-background:new 0 0 209.1 209.1;" xml:space="preserve">
<style type="text/css">
	.st0{fill:url(#SVGID_1_);}
	.st1{fill:#FFFFFF;}
</style>
<linearGradient id="SVGID_1_" gradientUnits="userSpaceOnUse" x1="-66.0409" y1="-241.1246" x2="89.7465" y2="-101.7972" gradientTransform="matrix(0.9472 0.3205 -0.3205 0.9472 38.3458 261.7918)">
	<stop  offset="0" style="stop-color:#0045FF"/>
	<stop  offset="1" style="stop-color:#00F5FF"/>
</linearGradient>
<path class="st0" d="M138,4.2c54.7,18.5,84,77.8,65.5,132.5s-77.8,84-132.5,65.5S-13,124.4,5.5,69.7S83.4-14.3,138,4.2z"/>
<g>
	<g>
		<path class="st1" d="M161.9,79.7l-26.1-26.1c-0.9-0.9-1.9-1.3-3.1-1.3c-0.5,0-1.1,0.1-1.7,0.3c-1.8,0.8-2.7,2.1-2.7,4v13.1h-10.9
			c-4.8,0-9.3,0.2-13.4,0.7c-4.1,0.5-7.7,1.2-10.9,2.1c-3.1,0.9-6,2-8.5,3.3c-2.5,1.3-4.7,2.7-6.4,4.2c-1.8,1.5-3.3,3.2-4.7,5
			c-1.3,1.9-2.4,3.7-3.2,5.5c-0.8,1.8-1.4,3.8-1.9,6c-0.5,2.2-0.8,4.2-1,6.1c-0.2,1.9-0.2,4-0.2,6.2c0,2.5,0.4,5.3,1.2,8.3
			c0.8,3,1.7,5.6,2.6,7.8c1,2.2,2.1,4.4,3.4,6.8c1.3,2.3,2.2,3.9,2.7,4.7c0.5,0.8,1,1.5,1.4,2.1c0.5,0.6,1,0.9,1.8,0.9
			c0.2,0,0.5,0,0.8-0.1c1-0.5,1.5-1.3,1.4-2.3c-2-15.2-0.4-26,5-32.2c5.2-5.9,15.2-8.9,29.8-8.9h10.9v13.1c0,1.9,0.9,3.2,2.7,4
			c0.6,0.2,1.2,0.3,1.7,0.3c1.2,0,2.2-0.4,3.1-1.3l26.1-26.1c0.9-0.9,1.3-1.9,1.3-3.1C163.2,81.6,162.7,80.5,161.9,79.7z"/>
		<path class="st1" d="M144.3,117.6c-0.9-0.4-1.7-0.2-2.4,0.5c-1.2,1.1-2.4,1.9-3.7,2.5c-0.8,0.5-1.2,1.1-1.2,2v14.6
			c0,3-1.1,5.6-3.2,7.7c-2.1,2.1-4.7,3.2-7.7,3.2H69.5c-3,0-5.6-1.1-7.7-3.2c-2.1-2.1-3.2-4.7-3.2-7.7V80.6c0-3,1.1-5.6,3.2-7.7
			c2.1-2.1,4.7-3.2,7.7-3.2h7.6c0.3,0,0.6-0.1,1.1-0.3c2.5-1.5,5.6-2.9,9.1-4.1c1.2-0.2,1.8-1,1.8-2.2c0-0.6-0.2-1.1-0.6-1.5
			C88,61.2,87.4,61,86.9,61H69.5c-5.4,0-10,1.9-13.9,5.8c-3.8,3.8-5.8,8.5-5.8,13.9v56.6c0,5.4,1.9,10,5.8,13.9
			c3.8,3.8,8.5,5.8,13.9,5.8h56.6c5.4,0,10-1.9,13.9-5.8c3.8-3.8,5.8-8.5,5.8-13.9v-17.6C145.7,118.7,145.3,118,144.3,117.6z"/>
	</g>
</g>
</svg>
