<svg height="40" viewBox="0 0 108.85157 40" width="108.85157" xmlns="http://www.w3.org/2000/svg"><path d="m99.32227 0h-89.78759c-.3667 0-.729 0-1.09473.002-.30615.002-.60986.00781-.91895.0127a13.21476 13.21476 0 0 0 -2.0039.17671 6.66509 6.66509 0 0 0 -1.90088.627 6.43779 6.43779 0 0 0 -1.61865 1.17866 6.25844 6.25844 0 0 0 -1.17822 1.62109 6.60119 6.60119 0 0 0 -.625 1.90332 12.993 12.993 0 0 0 -.1792 2.002c-.00928.3066-.01026.61422-.01515.92086v23.11426c.00489.3105.00587.6113.01515.9219a12.99232 12.99232 0 0 0 .1792 2.0019 6.58756 6.58756 0 0 0 .625 1.9043 6.20778 6.20778 0 0 0 1.17822 1.6143 6.27445 6.27445 0 0 0 1.61865 1.1787 6.70082 6.70082 0 0 0 1.90088.6308 13.45514 13.45514 0 0 0 2.0039.1768c.30909.0068.6128.0107.91895.0107.36572.002.72805.002 1.09473.002h89.78759c.3594 0 .7246 0 1.084-.002.3047 0 .6172-.0039.9219-.0107a13.279 13.279 0 0 0 2-.1768 6.80432 6.80432 0 0 0 1.9082-.6308 6.27742 6.27742 0 0 0 1.6172-1.1787 6.39482 6.39482 0 0 0 1.1816-1.6143 6.60413 6.60413 0 0 0 .6191-1.9043 13.50643 13.50643 0 0 0 .1856-2.0019c.0039-.3106.0039-.6114.0039-.9219.0078-.3633.0078-.7246.0078-1.0938v-20.92867c0-.36621 0-.72949-.0078-1.09179 0-.30664 0-.61426-.0039-.9209a13.5071 13.5071 0 0 0 -.1856-2.002 6.6177 6.6177 0 0 0 -.6191-1.90332 6.46619 6.46619 0 0 0 -2.7988-2.7998 6.76754 6.76754 0 0 0 -1.9082-.627 13.04394 13.04394 0 0 0 -2-.17676c-.3047-.00488-.6172-.01074-.9219-.01269-.3594-.00187-.7246-.00187-1.084-.00187z" fill="#a6a6a6"/><path d="m8.44483 39.125c-.30468 0-.602-.0039-.90429-.0107a12.68714 12.68714 0 0 1 -1.86914-.1631 5.88381 5.88381 0 0 1 -1.65674-.5479 5.40573 5.40573 0 0 1 -1.397-1.0166 5.32082 5.32082 0 0 1 -1.02051-1.3965 5.72186 5.72186 0 0 1 -.543-1.6572 12.41351 12.41351 0 0 1 -.1665-1.875c-.00634-.2109-.01464-.9131-.01464-.9131v-23.10056s.00884-.69141.01469-.89454a12.37039 12.37039 0 0 1 .16553-1.87207 5.7555 5.7555 0 0 1 .54346-1.6621 5.37349 5.37349 0 0 1 1.01514-1.39795 5.56543 5.56543 0 0 1 1.40234-1.02247 5.82309 5.82309 0 0 1 1.65332-.54394 12.58589 12.58589 0 0 1 1.87551-.16406l.90232-.01221h91.956l.9131.0127a12.38493 12.38493 0 0 1 1.8584.16259 5.93833 5.93833 0 0 1 1.6709.54785 5.59374 5.59374 0 0 1 2.415 2.41993 5.76267 5.76267 0 0 1 .53528 1.64893 12.995 12.995 0 0 1 .1738 1.88721c.0029.2832.0029.5874.0029.89014.0079.375.0079.73193.0079 1.09179v20.92866c0 .3633 0 .7178-.0079 1.0752 0 .3252 0 .6231-.0039.9297a12.73126 12.73126 0 0 1 -.1709 1.8535 5.739 5.739 0 0 1 -.54 1.67 5.48029 5.48029 0 0 1 -1.0156 1.3857 5.4129 5.4129 0 0 1 -1.3994 1.0225 5.86168 5.86168 0 0 1 -1.668.5498 12.54218 12.54218 0 0 1 -1.8692.1631c-.2929.0068-.5996.0107-.8974.0107l-1.084.002z"/><g fill="#fff"><path d="m41.16742 16.55462h-4.05157l-.973 2.873h-1.71607l3.83759-10.62925h1.783l3.83759 10.62922h-1.74539zm-3.632-1.32573h3.21158l-1.58318-4.66261h-.0443z"/><path d="m52.1728 15.55322c0 2.40821-1.28895 3.95545-3.23407 3.95545a2.62719 2.62719 0 0 1 -2.4383-1.35582h-.03678v3.83842h-1.59071v-10.31327h1.53972v1.289h.02926a2.749 2.749 0 0 1 2.46756-1.37c1.96685-.00006 3.26332 1.5547 3.26332 3.95622zm-1.635 0c0-1.569-.81082-2.60046-2.04794-2.60046-1.21539 0-2.03289 1.05323-2.03289 2.60046 0 1.56145.8175 2.60715 2.03289 2.60715 1.23714 0 2.04793-1.02397 2.04793-2.60715z"/><path d="m60.70267 15.55322c0 2.40821-1.28937 3.95545-3.23449 3.95545a2.62719 2.62719 0 0 1 -2.4383-1.35582h-.03678v3.83842h-1.5907v-10.31327h1.53972v1.289h.02926a2.749 2.749 0 0 1 2.46756-1.37c1.96684-.00006 3.26373 1.5547 3.26373 3.95622zm-1.63543 0c0-1.569-.81082-2.60046-2.04794-2.60046-1.21539 0-2.03289 1.05323-2.03289 2.60046 0 1.56145.8175 2.60715 2.03289 2.60715 1.23713 0 2.04795-1.02397 2.04795-2.60715z"/><path d="m66.3391 16.466c.11786 1.05406 1.14183 1.74618 2.54112 1.74618 1.34077 0 2.30539-.69212 2.30539-1.64253 0-.825-.58178-1.319-1.95933-1.65758l-1.37755-.33185c-1.95181-.47144-2.85792-1.38424-2.85792-2.86544 0-1.834 1.59823-3.09364 3.86684-3.09364 2.24688 0 3.7866 1.25969 3.83842 3.09364h-1.60575c-.09613-1.06075-.973-1.701-2.2544-1.701s-2.15828.64782-2.15828 1.59071c0 .75147.56 1.19366 1.93008 1.53219l1.17109.28755c2.18085.51575 3.08612 1.39176 3.08612 2.94652 0 1.98859-1.58318 3.23407-4.10257 3.23407-2.35722 0-3.94876-1.21623-4.05158-3.13878z"/><path d="m76.29961 9.84407v1.834h1.47368v1.25969h-1.47368v4.27224c0 .6637.29507.973.94289.973a4.971 4.971 0 0 0 .52327-.03678v1.25217a4.36838 4.36838 0 0 1 -.88354.07356c-1.569 0-2.18085-.5893-2.18085-2.09224v-4.442h-1.12678v-1.25971h1.12678v-1.834z"/><path d="m78.6259 15.55322c0-2.4383 1.43607-3.97049 3.67542-3.97049 2.24688 0 3.67626 1.53219 3.67626 3.97049 0 2.445-1.42185 3.97049-3.67626 3.97049-2.25356.00001-3.67542-1.5255-3.67542-3.97049zm5.73089 0c0-1.67262-.76651-2.65981-2.05546-2.65981s-2.05546.99471-2.05546 2.65981c0 1.67931.76651 2.659 2.05546 2.659s2.05546-.97969 2.05546-2.659z"/><path d="m87.2891 11.678h1.51715v1.319h.03675a1.84835 1.84835 0 0 1 1.864-1.40012 2.4533 2.4533 0 0 1 .545.05935v1.48789a2.22372 2.22372 0 0 0 -.71469-.09613 1.6029 1.6029 0 0 0 -1.65758 1.783v4.59658h-1.59063z"/><path d="m98.5862 17.15145a3.11011 3.11011 0 0 1 -3.33689 2.37227c-2.2544 0-3.65369-1.51046-3.65369-3.93372 0-2.43078 1.40681-4.00727 3.58682-4.00727 2.14407 0 3.49236 1.47284 3.49236 3.82254v.545h-5.47342v.09613a2.01837 2.01837 0 0 0 2.08472 2.19506 1.75329 1.75329 0 0 0 1.78965-1.09zm-5.3773-2.31292h3.87437a1.86367 1.86367 0 0 0 -1.90082-1.96686 1.96188 1.96188 0 0 0 -1.97355 1.96686z"/><path d="m36.43654 30.81152.06592-.81934a3.13245 3.13245 0 0 0 .95068.15137c.292 0 .40479-.02832.54639-.22656a4.56512 4.56512 0 0 0 .43262-2.31543c0-.84766-.26318-1.09277-.93164-1.09277-.15088 0-.32031.00977-.50879.01953a13.72712 13.72712 0 0 1 -1.76953 4.123l-.78174-.42383a11.0714 11.0714 0 0 0 1.64746-3.61523 13.67658 13.67658 0 0 0 -1.53418.25488l-.16943-.8291c.57422-.10352 1.26123-.19727 1.90137-.25391a17.609 17.609 0 0 0 .292-1.89258l.92285.10352c-.085.57422-.18848 1.14941-.32031 1.71387h.36719c1.1958 0 1.77.59277 1.77 1.85449a5.83361 5.83361 0 0 1 -.5459 2.7959 1.1565 1.1565 0 0 1 -1.12988.60254 5.18145 5.18145 0 0 1 -1.20508-.15035zm3.03125-5.07422.6875-.46191a5.29872 5.29872 0 0 1 1.60986 3.48438l-.90381.14063a4.39851 4.39851 0 0 0 -1.39355-3.1631z"/><path d="m44.88674 30.94336-.188-.84766c.23535.01953.5459.02832.73438.02832 1.86377 0 2.56982-.52637 2.56982-1.30859 0-.62109-.40479-.97852-1.30859-.97852a4.03864 4.03864 0 0 0 -2.57959 1.26172l-.7251-.32031a5.5238 5.5238 0 0 1 .80034-3.53032l.83789.27246a3.6874 3.6874 0 0 0 -.71533 2.44824 4.81661 4.81661 0 0 1 2.57031-.876c1.26172 0 2.043.64941 2.043 1.7041 0 1.33691-1.05469 2.15625-3.58691 2.15625-.12263.00008-.30134-.00969-.45222-.00969zm-.87549-6.251.23535-.8291a25.88517 25.88517 0 0 1 3.7002.84766l-.22607.81934a21.14206 21.14206 0 0 0 -3.70948-.83788z"/><path d="m51.65236 30.29395a5.94767 5.94767 0 0 0 2.53223-1.63867 10.69472 10.69472 0 0 0 -1.76025-1.18555l.51758-.64941a11.44509 11.44509 0 0 1 1.78857 1.12891 5.95376 5.95376 0 0 0 .92285-2.1748h-2.40088a9.70214 9.70214 0 0 1 -2.05225 2.36328l-.6875-.59277a8.92365 8.92365 0 0 0 2.61768-3.59668l.90381.2168c-.10352.26367-.207.53613-.32959.791h2.335l.66846.31055a7.141 7.141 0 0 1 -4.50977 5.76172zm3.97264-6.57129.52734-.25488a5.67722 5.67722 0 0 1 .66846 1.1582l-.59326.27344a5.13466 5.13466 0 0 0 -.60254-1.17676zm1.17676-.09473.53662-.25391a6.35614 6.35614 0 0 1 .6875 1.18652l-.59326.25391a5.1684 5.1684 0 0 0 -.63084-1.18652z"/><path d="m60.92141 30.99023-.48-.7627a3.94382 3.94382 0 0 0 3.314-4.15137h-3.9541v1.89258h-.95117v-2.69335h2.36326v-1.38379h.95068v1.38379h1.76074l.86621.24512c-.11328 2.67383-1.00732 4.71679-3.86962 5.46972z"/><path d="m66.62258 25.3418.52734-.77246a11.68341 11.68341 0 0 1 2.31543 1.40332l-.60254.80957a11.0534 11.0534 0 0 0 -2.24023-1.44043zm.17871 4.6416a7.31748 7.31748 0 0 0 5.43262-3.917l.62109.69727a7.96352 7.96352 0 0 1 -5.69531 4.09473z"/><path d="m80.57082 30.43555h-5.92187v-5.60255h5.92188zm-4.98926-4.73633v3.87012h4.04785v-3.87012z"/><path d="m89.04934 27.9209h-6.65625v-.96h6.65625z"/><path d="m91.314 23.91992h.93164v2.41016a29.013 29.013 0 0 1 3.59668 1.79883l-.52732.82809a22.724 22.724 0 0 0 -3.06934-1.64746v3.63379h-.93166zm2.21191.50879.55566-.26367a6.19409 6.19409 0 0 1 .66895 1.28027l-.6123.27344a5.5162 5.5162 0 0 0 -.61232-1.29004zm1.07324-.40527.56543-.26367a6.10514 6.10514 0 0 1 .70605 1.28023l-.6123.27344a6.12723 6.12723 0 0 0 -.65919-1.29z"/><path d="m24.76888 20.30068a4.94881 4.94881 0 0 1 2.35656-4.15206 5.06566 5.06566 0 0 0 -3.99116-2.15768c-1.67924-.17626-3.30719 1.00483-4.1629 1.00483-.87227 0-2.18977-.98733-3.6085-.95814a5.31529 5.31529 0 0 0 -4.47292 2.72787c-1.934 3.34842-.49141 8.26947 1.3612 10.97608.9269 1.32535 2.01018 2.8058 3.42763 2.7533 1.38706-.05753 1.9051-.88448 3.5794-.88448 1.65876 0 2.14479.88448 3.591.8511 1.48838-.02416 2.42613-1.33124 3.32051-2.66914a10.962 10.962 0 0 0 1.51842-3.09251 4.78205 4.78205 0 0 1 -2.91924-4.39917z"/><path d="m22.03725 12.21089a4.87248 4.87248 0 0 0 1.11452-3.49062 4.95746 4.95746 0 0 0 -3.20758 1.65961 4.63634 4.63634 0 0 0 -1.14371 3.36139 4.09905 4.09905 0 0 0 3.23677-1.53038z"/></g></svg>