<svg xmlns="http://www.w3.org/2000/svg" width="135" height="40" viewBox="0 0 135 40"><title>distribution-button-large</title><rect width="135" height="40" rx="5" ry="5"/><path d="M130,.8A4.2,4.2,0,0,1,134.2,5V35a4.2,4.2,0,0,1-4.2,4.2H5A4.2,4.2,0,0,1,.8,35V5A4.2,4.2,0,0,1,5,.8H130m0-.8H5A5,5,0,0,0,0,5V35a5,5,0,0,0,5,5H130a5,5,0,0,0,5-5V5a5,5,0,0,0-5-5Z" style="fill:#a6a6a6"/><path d="M26.66,30.94A1.07,1.07,0,0,1,25.59,32H9.17A1.07,1.07,0,0,1,8.1,30.94V27.37A1.07,1.07,0,0,1,9.17,26.3h5.19l1.51,1.52a2.15,2.15,0,0,0,3,0l1.52-1.52h5.18a1.07,1.07,0,0,1,1.07,1.07ZM22.88,21.8l-5,5a.7.7,0,0,1-1,0l-5-5a.7.7,0,0,1-.16-.78.72.72,0,0,1,.66-.44h2.86v-5a.72.72,0,0,1,.71-.71H18.8a.72.72,0,0,1,.71.71v5h2.86A.72.72,0,0,1,23,21,.7.7,0,0,1,22.88,21.8Zm-1.22,7.35a.71.71,0,1,0,.71.71A.72.72,0,0,0,21.66,29.15Zm2.86,0a.71.71,0,1,0,.71.71A.72.72,0,0,0,24.52,29.15Z" style="fill:#b3b3b3"/><path d="M35.13,7.14h-2V6.4h5v.74H36v6h-.88Z" style="fill:#b3b3b3"/><path d="M38.2,9.81c0-.57,0-1.06,0-1.51h.77l0,.95h0a1.45,1.45,0,0,1,1.34-1.06,1,1,0,0,1,.25,0V9a1.32,1.32,0,0,0-.3,0,1.23,1.23,0,0,0-1.18,1.13,2.52,2.52,0,0,0,0,.41v2.58H38.2Z" style="fill:#b3b3b3"/><path d="M42.11,8.3l1.06,2.86c.11.32.23.7.31,1h0c.09-.29.19-.66.31-1l1-2.84h.93l-1.32,3.45a7.37,7.37,0,0,1-1.66,3,2.38,2.38,0,0,1-1.08.57l-.22-.74a2.33,2.33,0,0,0,.77-.43,2.67,2.67,0,0,0,.74-1A.63.63,0,0,0,43,13a.76.76,0,0,0-.06-.23L41.15,8.3Z" style="fill:#b3b3b3"/><path d="M49.6,6.94a.54.54,0,0,1-1.09,0,.54.54,0,0,1,.55-.55A.52.52,0,0,1,49.6,6.94Zm-1,6.2V8.3h.88v4.84Z" style="fill:#b3b3b3"/><path d="M52,6.91V8.3h1.26V9H52v2.61c0,.6.17.94.66.94a1.94,1.94,0,0,0,.51-.06l0,.66a2.15,2.15,0,0,1-.78.12,1.22,1.22,0,0,1-.95-.37,1.79,1.79,0,0,1-.34-1.26V9h-.75V8.3h.75V7.14Z" style="fill:#b3b3b3"/><path d="M60.77,10.67a2.36,2.36,0,0,1-2.41,2.57A2.3,2.3,0,0,1,56,10.75a2.36,2.36,0,0,1,2.4-2.57A2.29,2.29,0,0,1,60.77,10.67Zm-3.84,0c0,1.06.61,1.86,1.47,1.86s1.47-.79,1.47-1.88c0-.82-.41-1.86-1.45-1.86S56.93,9.81,56.93,10.72Z" style="fill:#b3b3b3"/><path d="M61.91,9.61c0-.5,0-.91,0-1.31h.78l.05.8h0a1.78,1.78,0,0,1,1.6-.91c.67,0,1.71.4,1.71,2.06v2.89h-.88V10.34c0-.78-.29-1.43-1.12-1.43a1.25,1.25,0,0,0-1.18.9,1.27,1.27,0,0,0-.06.41v2.91h-.88Z" style="fill:#b3b3b3"/><path d="M69.9,8.3,71,11.15c.11.32.23.7.31,1h0c.09-.29.19-.66.31-1l1-2.84h.93l-1.32,3.45a7.37,7.37,0,0,1-1.66,3,2.38,2.38,0,0,1-1.08.57l-.22-.74a2.33,2.33,0,0,0,.77-.43,2.67,2.67,0,0,0,.74-1,.63.63,0,0,0,.07-.21.76.76,0,0,0-.06-.23L68.94,8.3Z" style="fill:#b3b3b3"/><path d="M78.58,10.67a2.36,2.36,0,0,1-2.41,2.57,2.3,2.3,0,0,1-2.32-2.49,2.36,2.36,0,0,1,2.4-2.57A2.29,2.29,0,0,1,78.58,10.67Zm-3.84,0c0,1.06.61,1.86,1.47,1.86s1.47-.79,1.47-1.88c0-.82-.41-1.86-1.45-1.86S74.75,9.81,74.75,10.72Z" style="fill:#b3b3b3"/><path d="M83.76,11.81c0,.5,0,.94,0,1.32H83l0-.79h0a1.82,1.82,0,0,1-1.6.9c-.76,0-1.67-.42-1.67-2.12V8.3h.88V11c0,.92.28,1.54,1.08,1.54a1.27,1.27,0,0,0,1.16-.8,1.29,1.29,0,0,0,.08-.45v-3h.88Z" style="fill:#b3b3b3"/><path d="M85.21,9.81c0-.57,0-1.06,0-1.51h.77l0,.95h0a1.45,1.45,0,0,1,1.34-1.06,1,1,0,0,1,.25,0V9a1.32,1.32,0,0,0-.3,0,1.23,1.23,0,0,0-1.18,1.13,2.52,2.52,0,0,0,0,.41v2.58h-.87Z" style="fill:#b3b3b3"/><path d="M94.78,6v5.85c0,.43,0,.92,0,1.25H94l0-.84h0a1.79,1.79,0,0,1-1.65.95,2.21,2.21,0,0,1-2.07-2.46,2.31,2.31,0,0,1,2.17-2.6,1.62,1.62,0,0,1,1.46.74h0V6Zm-.88,4.23a1.59,1.59,0,0,0,0-.37,1.3,1.3,0,0,0-1.27-1c-.91,0-1.45.8-1.45,1.87s.48,1.79,1.43,1.79a1.32,1.32,0,0,0,1.29-1,1.57,1.57,0,0,0,0-.38Z" style="fill:#b3b3b3"/><path d="M96.75,10.87a1.55,1.55,0,0,0,1.66,1.68,3.18,3.18,0,0,0,1.34-.25l.15.63a3.92,3.92,0,0,1-1.61.3,2.25,2.25,0,0,1-2.38-2.44,2.35,2.35,0,0,1,2.27-2.61,2,2,0,0,1,2,2.28,3.16,3.16,0,0,1,0,.41Zm2.58-.63a1.25,1.25,0,0,0-1.22-1.43,1.46,1.46,0,0,0-1.35,1.43Z" style="fill:#b3b3b3"/><path d="M101.56,8.3l.95,2.72a12.25,12.25,0,0,1,.39,1.24h0c.11-.4.25-.8.41-1.24l.94-2.72h.92l-1.9,4.84h-.84L100.62,8.3Z" style="fill:#b3b3b3"/><path d="M107.05,6.94a.54.54,0,0,1-1.09,0,.54.54,0,0,1,.55-.55A.52.52,0,0,1,107.05,6.94Zm-1,6.2V8.3H107v4.84Z" style="fill:#b3b3b3"/><path d="M111.86,13a3.24,3.24,0,0,1-1.39.28,2.3,2.3,0,0,1-2.41-2.47,2.46,2.46,0,0,1,2.6-2.57,2.94,2.94,0,0,1,1.22.25l-.2.68a2,2,0,0,0-1-.23A1.67,1.67,0,0,0,109,10.72a1.66,1.66,0,0,0,1.68,1.81,2.49,2.49,0,0,0,1.08-.24Z" style="fill:#b3b3b3"/><path d="M113.28,10.87a1.55,1.55,0,0,0,1.66,1.68,3.18,3.18,0,0,0,1.34-.25l.15.63a3.92,3.92,0,0,1-1.61.3,2.25,2.25,0,0,1-2.38-2.44,2.35,2.35,0,0,1,2.27-2.61,2,2,0,0,1,2,2.28,3.16,3.16,0,0,1,0,.41Zm2.58-.63a1.25,1.25,0,0,0-1.22-1.43,1.46,1.46,0,0,0-1.35,1.43Z" style="fill:#b3b3b3"/><path d="M42,18.24a.49.49,0,0,1,.15-.37.51.51,0,0,1,.37-.15.51.51,0,0,1,.52.51v8.12a4.65,4.65,0,1,1-1.36-3.29l.32.32Zm0,8.12A3.61,3.61,0,1,0,41,28.92,3.48,3.48,0,0,0,42,26.36Z" style="fill:#fff"/><path d="M51.8,29a.49.49,0,0,1,.37.15.51.51,0,0,1,.15.37.5.5,0,0,1-.13.36,4.65,4.65,0,0,1-6.32-6.81,4.65,4.65,0,0,1,7.94,3.29.51.51,0,0,1-.51.51H45.55a3.89,3.89,0,0,0,1,2A3.48,3.48,0,0,0,49.16,30a3.46,3.46,0,0,0,2.32-.85A.49.49,0,0,1,51.8,29Zm.95-3.16a3.79,3.79,0,0,0-1-2,3.61,3.61,0,0,0-5.11,0,3.89,3.89,0,0,0-1,2Z" style="fill:#fff"/><path d="M56.13,34.48a.51.51,0,1,1-1,0V26.36a4.65,4.65,0,1,1,1.36,3.29l-.33-.32Zm0-8.12A3.63,3.63,0,1,0,57.2,23.8,3.49,3.49,0,0,0,56.13,26.36Z" style="fill:#fff"/><path d="M66,18.23a.51.51,0,0,1,.51-.51.51.51,0,0,1,.37.15.49.49,0,0,1,.15.37V30h.86a.51.51,0,0,1,.37.15.51.51,0,0,1,0,.73.51.51,0,0,1-.37.15H66.55a.51.51,0,0,1-.51-.51Z" style="fill:#fff"/><path d="M78.73,26.36a4.65,4.65,0,1,1-1.36-3.29A4.48,4.48,0,0,1,78.73,26.36Zm-4.65-3.62a3.62,3.62,0,0,0-2.56,6.18,3.62,3.62,0,0,0,5.11-5.11A3.48,3.48,0,0,0,74.08,22.74Z" style="fill:#fff"/><path d="M82.87,30.49l-3.36-8.05a.73.73,0,0,1,0-.21.49.49,0,0,1,.15-.37.51.51,0,0,1,.37-.15.5.5,0,0,1,.37.15.58.58,0,0,1,.13.21l2.95,7.06,2.95-7.06a.63.63,0,0,1,.14-.22.48.48,0,0,1,.36-.13.5.5,0,0,1,.37.15.53.53,0,0,1,.16.37.57.57,0,0,1,0,.18L82.25,34.65a.5.5,0,0,1-.12.19.51.51,0,0,1-.37.16.51.51,0,0,1-.51-.51.45.45,0,0,1,0-.18Z" style="fill:#fff"/><path d="M95.72,30a4.65,4.65,0,0,1-6.2-6.91,4.65,4.65,0,0,1,7.94,3.29V31a3.43,3.43,0,0,1-.18,1.13,3.65,3.65,0,0,1-.51,1,4.25,4.25,0,0,1-.76.8,4.79,4.79,0,0,1-1,.6,5.32,5.32,0,0,1-1.07.38,4.71,4.71,0,0,1-1.11.13,5,5,0,0,1-1.3-.17,5,5,0,0,1-1.21-.5,4.9,4.9,0,0,1-1-.82,5,5,0,0,1-.81-1.1.8.8,0,0,1-.13-.46.83.83,0,0,1,.25-.62.85.85,0,0,1,.62-.25.69.69,0,0,1,.41.12,2.38,2.38,0,0,1,.44.51,4.3,4.3,0,0,0,.5.6,3.24,3.24,0,0,0,4.56,0A2.16,2.16,0,0,0,95.72,31ZM92.8,23.45a2.83,2.83,0,0,0-1.15.23,2.93,2.93,0,0,0-.92.63,3,3,0,0,0-.62.93,2.9,2.9,0,0,0,0,2.26,3,3,0,0,0,.62.93,2.93,2.93,0,0,0,.92.63,2.83,2.83,0,0,0,1.15.23A2.8,2.8,0,0,0,93.94,29a3,3,0,0,0,.93-.63,3,3,0,0,0,.62-.93,2.88,2.88,0,0,0,0-2.25,3,3,0,0,0-.62-.93,3,3,0,0,0-.93-.63A2.8,2.8,0,0,0,92.8,23.45Z" style="fill:#fff"/><path d="M106.48,30.15V30a4.77,4.77,0,0,1-1.35.76,4.53,4.53,0,0,1-1.56.27,4.65,4.65,0,0,1-3.29-7.94,4.65,4.65,0,0,1,7.94,3.29v3.79a.86.86,0,0,1-.86.86.84.84,0,0,1-.62-.25A.83.83,0,0,1,106.48,30.15Zm-2.91-6.7a2.83,2.83,0,0,0-1.15.23,2.93,2.93,0,0,0-.92.63,3,3,0,0,0-.62.93,2.9,2.9,0,0,0,0,2.26,3,3,0,0,0,.62.93,2.93,2.93,0,0,0,.92.63,2.83,2.83,0,0,0,1.15.23A2.8,2.8,0,0,0,104.7,29a3,3,0,0,0,.93-.63,3,3,0,0,0,.62-.93,2.88,2.88,0,0,0,0-2.25,3,3,0,0,0-.62-.93,3,3,0,0,0-.93-.63A2.8,2.8,0,0,0,103.57,23.45Z" style="fill:#fff"/><path d="M110.16,21.71h.39V18.59a.83.83,0,0,1,.25-.61.84.84,0,0,1,.62-.25.86.86,0,0,1,.86.86v3.12h1a.82.82,0,0,1,.61.25.88.88,0,0,1,0,1.23.82.82,0,0,1-.61.25h-1v4.18a1.46,1.46,0,0,0,1.66,1.65.82.82,0,0,1,.61.25.84.84,0,0,1,.25.61.85.85,0,0,1-.25.62.82.82,0,0,1-.61.25q-3.4,0-3.4-3.39V23.45h-.39a.82.82,0,0,1-.6-.25.87.87,0,0,1,0-1.23A.82.82,0,0,1,110.16,21.71Z" style="fill:#fff"/><path d="M122.51,28.39a.84.84,0,0,1,.86.86.86.86,0,0,1-.25.62,4.65,4.65,0,0,1-6.33-6.81,4.65,4.65,0,0,1,6.57,0,4.52,4.52,0,0,1,1,1.5,4.66,4.66,0,0,1,.34,1.79.82.82,0,0,1-.25.62.86.86,0,0,1-.62.25h-6.57a2.85,2.85,0,0,0,.41.83,2.93,2.93,0,0,0,.64.65,3,3,0,0,0,.81.42,3,3,0,0,0,1.93,0,2.77,2.77,0,0,0,.85-.5A.91.91,0,0,1,122.51,28.39Zm.37-2.9a2.77,2.77,0,0,0-.42-.83A3,3,0,0,0,121,23.6a2.86,2.86,0,0,0-.92-.15,2.9,2.9,0,0,0-.92.15,3,3,0,0,0-.82.42,2.87,2.87,0,0,0-.65.65,2.67,2.67,0,0,0-.41.83Z" style="fill:#fff"/></svg>