<svg id="レイヤー_1" data-name="レイヤー 1" xmlns="http://www.w3.org/2000/svg" xmlns:xlink="http://www.w3.org/1999/xlink" viewBox="0 0 209.06 209.06"><defs><style>.cls-1{fill:url(#名称未設定グラデーション_2);}.cls-2{fill:#fff;}</style><linearGradient id="名称未設定グラデーション_2" x1="-95.03" y1="183.43" x2="60.76" y2="322.76" gradientTransform="matrix(0.95, 0.32, -0.32, 0.95, 201.88, -129.72)" gradientUnits="userSpaceOnUse"><stop offset="0" stop-color="#0045ff"/><stop offset="1" stop-color="#00f5ff"/></linearGradient></defs><path class="cls-1" d="M138,5.54A104.5,104.5,0,1,1,5.54,71,104.51,104.51,0,0,1,138,5.54Z"/><path class="cls-2" d="M83.54,103a28,28,0,1,1,31.49-.06c.36.2.66.4,1,.55A39.32,39.32,0,0,1,133.4,118.9a72.68,72.68,0,0,1,3.73,7.87,1.23,1.23,0,0,1-.18,1.08c-1.95,2-3.95,4-6.1,6.22-2.3-10.51-8-18.24-17.38-23a31.18,31.18,0,0,0-18.57-3,32.32,32.32,0,0,0-27.71,31.62H59.28a39.4,39.4,0,0,1,6.66-21.91A40.53,40.53,0,0,1,83.54,103ZM119.28,79.6a20,20,0,1,0-20,20.05A20,20,0,0,0,119.28,79.6Z"/><path class="cls-2" d="M127.05,157.37l-18.49-18.68,5.8-5.82,12.92,12.95,24.94-24.94,5.56,5.56Z"/></svg>